<?xml version="1.0" standalone="no"?>
<!DOCTYPE svg PUBLIC "-//W3C//DTD SVG 20010904//EN"
 "http://www.w3.org/TR/2001/REC-SVG-20010904/DTD/svg10.dtd">
<svg version="1.0" xmlns="http://www.w3.org/2000/svg"
 width="64.000000pt" height="64.000000pt" viewBox="0 0 64.000000 64.000000"
 preserveAspectRatio="xMidYMid meet">

<g transform="translate(0.000000,64.000000) scale(0.100000,-0.100000)"
fill="#000000" stroke="none">
<path d="M66 554 c-20 -20 -20 -68 0 -88 8 -9 28 -16 44 -16 36 0 60 24 60 60
0 36 -24 60 -60 60 -16 0 -36 -7 -44 -16z m69 -44 c0 -18 -6 -26 -23 -28 -13
-2 -25 3 -28 12 -10 26 4 48 28 44 17 -2 23 -10 23 -28z"/>
<path d="M303 508 c5 -18 279 -18 285 0 3 9 -30 12 -143 12 -113 0 -146 -3
-142 -12z"/>
<path d="M66 364 c-20 -20 -20 -68 0 -88 20 -20 68 -20 88 0 20 20 20 68 0 88
-8 9 -28 16 -44 16 -16 0 -36 -7 -44 -16z m69 -44 c0 -18 -6 -26 -23 -28 -24
-4 -38 18 -28 44 3 9 15 14 28 12 17 -2 23 -10 23 -28z"/>
<path d="M303 318 c5 -18 279 -18 285 0 3 9 -30 12 -143 12 -113 0 -146 -3
-142 -12z"/>
<path d="M163 142 l-53 -57 -28 33 c-16 17 -34 32 -40 32 -23 0 -12 -26 28
-65 l40 -39 65 64 c36 35 65 70 65 77 0 26 -26 11 -77 -45z"/>
<path d="M303 128 c5 -18 279 -18 285 0 3 9 -30 12 -143 12 -113 0 -146 -3
-142 -12z"/>
</g>
</svg>
