<?xml version="1.0" standalone="no"?>
<!DOCTYPE svg PUBLIC "-//W3C//DTD SVG 20010904//EN"
 "http://www.w3.org/TR/2001/REC-SVG-20010904/DTD/svg10.dtd">
<svg version="1.0" xmlns="http://www.w3.org/2000/svg"
 width="24.000000pt" height="24.000000pt" viewBox="0 0 24.000000 24.000000"
 preserveAspectRatio="xMidYMid meet">

<g transform="translate(0.000000,24.000000) scale(0.100000,-0.100000)"
fill="#000000" stroke="none">
<path d="M17 183 c-15 -14 -7 -113 10 -133 21 -24 51 -26 59 -5 8 20 60 20 68
0 13 -36 76 1 76 46 0 34 -29 79 -50 79 -11 0 -20 5 -20 10 0 11 -133 14 -143
3z m123 -58 l0 -45 -55 2 -55 3 0 43 0 42 55 0 55 0 0 -45z m55 15 c3 -5 -3
-10 -14 -10 -12 0 -21 5 -21 10 0 6 6 10 14 10 8 0 18 -4 21 -10z m15 -44 c0
-9 -8 -12 -25 -8 -32 6 -32 22 0 22 14 0 25 -6 25 -14z m-140 -36 c0 -5 -4
-10 -10 -10 -5 0 -10 5 -10 10 0 6 5 10 10 10 6 0 10 -4 10 -10z m120 0 c0 -5
-4 -10 -10 -10 -5 0 -10 5 -10 10 0 6 5 10 10 10 6 0 10 -4 10 -10z"/>
</g>
</svg>
